<svg id="Capa_1" enable-background="new 0 0 512.004 512.004" height="512" viewBox="0 0 512.004 512.004" width="512" xmlns="http://www.w3.org/2000/svg"><g><path d="m286.002 37.503c-8.284 0-15 6.716-15 15l-30 30 30 20v-20c16.569 0 30-13.432 30-30 0-8.284-6.716-15-15-15z" fill="#504b83"/><path d="m271.002 52.503c0-8.284-6.716-15-15-15s-15 6.716-15 15c0-8.284-6.716-15-15-15s-15 6.716-15 15c0 16.568 13.431 30 30 30s30-13.431 30-30z" fill="#4663a2"/><path d="m158.502 219.503h-60c-15.456 0-28.177 11.69-29.817 26.709l-19.2 19.2c-4.25 4.25-9.9 6.591-15.91 6.591h-26.073c-4.142 0-7.5 3.357-7.5 7.5s3.358 7.5 7.5 7.5h26.074c10.016 0 19.433-3.9 26.516-10.983l26.517-26.517h71.894v-30z" fill="#5b3364"/><path d="m504.502 272.003h-26.074c-6.01 0-11.66-2.341-15.91-6.591l-19.2-19.2c-1.639-15.02-14.361-26.709-29.817-26.709h-30l30 30h11.894l26.517 26.517c7.083 7.083 16.5 10.983 26.516 10.983h26.074c4.142 0 7.5-3.357 7.5-7.5s-3.358-7.5-7.5-7.5z" fill="#302c4c"/><path d="m383.502 219.503h-30v30h60c0-16.568-13.432-30-30-30z" fill="#5b3364"/><path d="m158.502 309.503v-30h-60c-16.568 0-30 13.431-30 30v15c0 64.602 17.004 128.144 49.175 183.756 1.39 2.402 3.909 3.745 6.499 3.745 1.274 0 2.566-.325 3.749-1.009 3.585-2.074 4.811-6.662 2.737-10.248-30.852-53.332-47.159-114.276-47.159-176.244v-15z" fill="#5b3364"/><path d="m413.502 279.503h-30l30 30h15v15c0 61.968-16.307 122.912-47.159 176.244-2.074 3.586-.849 8.174 2.737 10.248 1.183.684 2.474 1.009 3.749 1.009 2.589 0 5.109-1.343 6.499-3.745 32.17-55.612 49.175-119.154 49.175-183.756v-15c-.001-16.568-13.433-30-30.001-30z" fill="#302c4c"/><path d="m383.502 279.503h-30v30h60c0-16.568-13.432-30-30-30z" fill="#5b3364"/><path d="m271.002 82.503h-30v75l75-30c0-24.75-20.25-45-45-45z" fill="#5b3364"/><path d="m241.002 82.503c-24.75 0-45 20.25-45 45l45 30 45-30c0-24.75-20.25-45-45-45z" fill="#504b83"/><path d="m196.002 127.503h-112.5c0-62.032 50.467-112.5 112.5-112.5 4.142 0 7.5-3.357 7.5-7.5s-3.358-7.5-7.5-7.5c-14.627 0-28.683 2.483-41.779 7.038l-.998-2.408c-1.585-3.827-5.972-5.643-9.799-4.059-3.827 1.585-5.644 5.972-4.059 9.799l1.004 2.423c-10.57 5.147-20.323 11.716-29.018 19.451l-5.507-5.507c-2.929-2.928-7.678-2.928-10.606 0-2.929 2.93-2.929 7.678 0 10.607l5.506 5.506c-7.735 8.695-14.304 18.448-19.451 29.018l-7.146-2.96c-3.826-1.588-8.214.232-9.799 4.059s.232 8.214 4.059 9.799l7.132 2.954c-4.555 13.095-7.038 27.152-7.038 41.779 0 16.569 13.432 30 30 30h150z" fill="#504b83"/><path d="m447.655 72.971c-1.585-3.827-5.973-5.644-9.799-4.059l-7.146 2.96c-5.147-10.57-11.715-20.323-19.451-29.018l5.506-5.506c2.929-2.93 2.929-7.678 0-10.607-2.929-2.928-7.678-2.928-10.606 0l-5.507 5.507c-8.695-7.735-18.448-14.304-29.018-19.451l1.004-2.423c1.585-3.827-.232-8.214-4.059-9.799-3.829-1.589-8.215.232-9.799 4.059l-.998 2.408c-13.095-4.555-27.152-7.038-41.779-7.038-4.142 0-7.5 3.357-7.5 7.5s3.358 7.5 7.5 7.5c62.033 0 112.5 50.468 112.5 112.5h-15l-30 30h30c16.568 0 30-13.431 30-30 0-14.627-2.484-28.684-7.038-41.779l7.132-2.954c3.825-1.586 5.643-5.973 4.058-9.8z" fill="#302c4c"/><path d="m413.502 127.503h-97.5l-52.5 30h120c16.568 0 30-13.431 30-30z" fill="#5b3364"/><path d="m361.002 202.503v-30h-60l-45 272c66.274 0 120-53.726 120-120v-107c0-8.25-6.75-15-15-15z" fill="#302c4c"/><path d="m346.002 324.503v-107c0-8.25-6.75-15-15-15v-30h-135l60 272c49.706 0 90-53.726 90-120z" fill="#5b3364"/><path d="m151.002 202.503c-8.25 0-15 6.75-15 15v107c0 66.274 53.726 120 120 120v-272h-105z" fill="#504b83"/><path d="m316.002 127.503h-30l45 75h30c8.25 0 15-6.75 15-15 0-33-27-60-60-60z" fill="#504b83"/><path d="m346.002 187.503c0-33-27-60-60-60h-90c-33 0-60 27-60 60 0 8.25 6.75 15 15 15h75c16.5 0 30 13.5 30 30 0-16.5 13.5-30 30-30h45c8.25 0 15-6.75 15-15z" fill="#4663a2"/></g></svg>